<svg width="1727" height="80" viewBox="0 0 1727 80" fill="none" xmlns="http://www.w3.org/2000/svg">
<rect width="1728" height="80" transform="translate(-1)" fill="white"/>
<path d="M98.9997 21.7179L115.148 55.884H82.8511L98.9997 21.7179Z" fill="#FECD2F"/>
<path fill-rule="evenodd" clip-rule="evenodd" d="M89.4602 51.7672H108.54L99 31.5835L89.4602 51.7672ZM79 54.1661L95.1486 20H102.851L119 54.1661L115.149 60H82.8514L79 54.1661Z" fill="url(#paint0_linear_113_1674)"/>
<path d="M130.36 53L140.32 30.05H140.56L150.52 53H145.48L139.12 36.86L142.27 34.7L134.65 53H130.36ZM137.17 45.02H143.8L145.33 48.68H135.82L137.17 45.02ZM153.049 29.33H157.249V53H153.049V29.33ZM165.804 53.63C164.624 53.63 163.634 53.27 162.834 52.55C162.034 51.81 161.614 50.86 161.574 49.7V39.89H165.774V48.14C165.814 48.72 165.964 49.19 166.224 49.55C166.484 49.89 166.924 50.06 167.544 50.06C168.164 50.06 168.694 49.85 169.134 49.43C169.594 49.01 169.944 48.44 170.184 47.72C170.444 46.98 170.574 46.15 170.574 45.23V39.89H174.774V53H170.964L170.634 50.6L170.694 50.87C170.394 51.41 170.014 51.89 169.554 52.31C169.094 52.73 168.544 53.05 167.904 53.27C167.284 53.51 166.584 53.63 165.804 53.63ZM182.874 39.89L183.264 43.49L183.174 42.95C183.554 42.17 184.074 41.51 184.734 40.97C185.394 40.41 186.044 39.98 186.684 39.68C187.344 39.38 187.844 39.23 188.184 39.23L187.974 43.43C186.994 43.31 186.154 43.47 185.454 43.91C184.754 44.35 184.214 44.93 183.834 45.65C183.454 46.37 183.264 47.11 183.264 47.87V53H179.094V39.89H182.874ZM196.479 53.36C195.259 53.36 194.149 53.12 193.149 52.64C192.169 52.14 191.389 51.38 190.809 50.36C190.229 49.34 189.939 48.04 189.939 46.46C189.939 44.98 190.239 43.7 190.839 42.62C191.439 41.54 192.229 40.71 193.209 40.13C194.189 39.53 195.229 39.23 196.329 39.23C197.629 39.23 198.609 39.45 199.269 39.89C199.949 40.31 200.509 40.78 200.949 41.3L200.769 41.81L201.159 39.89H205.059V53H200.859V50.15L201.189 51.05C201.149 51.05 201.029 51.17 200.829 51.41C200.629 51.63 200.329 51.9 199.929 52.22C199.549 52.52 199.069 52.78 198.489 53C197.929 53.24 197.259 53.36 196.479 53.36ZM197.679 49.94C198.179 49.94 198.629 49.87 199.029 49.73C199.429 49.57 199.779 49.35 200.079 49.07C200.379 48.77 200.639 48.4 200.859 47.96V44.75C200.699 44.31 200.459 43.94 200.139 43.64C199.819 43.32 199.439 43.08 198.999 42.92C198.559 42.74 198.069 42.65 197.529 42.65C196.929 42.65 196.369 42.81 195.849 43.13C195.349 43.43 194.949 43.85 194.649 44.39C194.349 44.93 194.199 45.55 194.199 46.25C194.199 46.95 194.359 47.58 194.679 48.14C194.999 48.7 195.419 49.14 195.939 49.46C196.479 49.78 197.059 49.94 197.679 49.94ZM215.927 31.31C218.107 31.31 219.817 31.76 221.057 32.66C222.317 33.54 222.947 34.92 222.947 36.8C222.947 37.94 222.687 38.93 222.167 39.77C221.647 40.61 220.917 41.27 219.977 41.75C219.057 42.23 217.967 42.5 216.707 42.56L216.287 41.06C217.747 41.1 219.057 41.36 220.217 41.84C221.377 42.32 222.297 42.99 222.977 43.85C223.657 44.71 223.997 45.73 223.997 46.91C223.997 47.99 223.797 48.92 223.397 49.7C222.997 50.46 222.457 51.09 221.777 51.59C221.097 52.07 220.327 52.43 219.467 52.67C218.607 52.89 217.717 53 216.797 53H210.347V31.31H215.927ZM216.527 40.82C217.727 40.82 218.597 40.49 219.137 39.83C219.677 39.15 219.947 38.33 219.947 37.37C219.947 36.23 219.597 35.4 218.897 34.88C218.197 34.36 217.257 34.1 216.077 34.1H213.257V40.82H216.527ZM216.647 50.3C217.447 50.3 218.177 50.18 218.837 49.94C219.517 49.7 220.047 49.33 220.427 48.83C220.827 48.33 221.027 47.7 221.027 46.94C221.027 46.1 220.797 45.44 220.337 44.96C219.897 44.48 219.327 44.14 218.627 43.94C217.927 43.72 217.207 43.61 216.467 43.61H213.257V50.3H216.647ZM227.121 46.67C227.121 45.43 227.411 44.31 227.991 43.31C228.591 42.31 229.411 41.52 230.451 40.94C231.491 40.36 232.671 40.07 233.991 40.07C235.351 40.07 236.541 40.36 237.561 40.94C238.581 41.52 239.371 42.31 239.931 43.31C240.491 44.31 240.771 45.43 240.771 46.67C240.771 47.91 240.491 49.04 239.931 50.06C239.371 51.06 238.571 51.85 237.531 52.43C236.511 53.01 235.321 53.3 233.961 53.3C232.641 53.3 231.461 53.03 230.421 52.49C229.401 51.93 228.591 51.16 227.991 50.18C227.411 49.18 227.121 48.01 227.121 46.67ZM229.911 46.7C229.911 47.5 230.091 48.23 230.451 48.89C230.811 49.53 231.291 50.04 231.891 50.42C232.511 50.8 233.191 50.99 233.931 50.99C234.711 50.99 235.401 50.8 236.001 50.42C236.621 50.04 237.101 49.53 237.441 48.89C237.781 48.23 237.951 47.5 237.951 46.7C237.951 45.9 237.781 45.18 237.441 44.54C237.101 43.88 236.621 43.36 236.001 42.98C235.401 42.58 234.711 42.38 233.931 42.38C233.171 42.38 232.481 42.58 231.861 42.98C231.261 43.38 230.781 43.91 230.421 44.57C230.081 45.21 229.911 45.92 229.911 46.7ZM243.469 46.67C243.469 45.43 243.759 44.31 244.339 43.31C244.939 42.31 245.759 41.52 246.799 40.94C247.839 40.36 249.019 40.07 250.339 40.07C251.699 40.07 252.889 40.36 253.909 40.94C254.929 41.52 255.719 42.31 256.279 43.31C256.839 44.31 257.119 45.43 257.119 46.67C257.119 47.91 256.839 49.04 256.279 50.06C255.719 51.06 254.919 51.85 253.879 52.43C252.859 53.01 251.669 53.3 250.309 53.3C248.989 53.3 247.809 53.03 246.769 52.49C245.749 51.93 244.939 51.16 244.339 50.18C243.759 49.18 243.469 48.01 243.469 46.67ZM246.259 46.7C246.259 47.5 246.439 48.23 246.799 48.89C247.159 49.53 247.639 50.04 248.239 50.42C248.859 50.8 249.539 50.99 250.279 50.99C251.059 50.99 251.749 50.8 252.349 50.42C252.969 50.04 253.449 49.53 253.789 48.89C254.129 48.23 254.299 47.5 254.299 46.7C254.299 45.9 254.129 45.18 253.789 44.54C253.449 43.88 252.969 43.36 252.349 42.98C251.749 42.58 251.059 42.38 250.279 42.38C249.519 42.38 248.829 42.58 248.209 42.98C247.609 43.38 247.129 43.91 246.769 44.57C246.429 45.21 246.259 45.92 246.259 46.7ZM260.897 53V29.78H263.687V53H260.897ZM266.687 44.75L272.387 53H269.117L264.827 46.31L266.687 44.75ZM262.817 49.04L262.547 46.37L270.077 40.31L271.787 41.78L262.817 49.04ZM279.318 53.24C278.438 53.24 277.578 53.09 276.738 52.79C275.918 52.47 275.238 52 274.698 51.38L275.868 49.76C276.388 50.26 276.918 50.64 277.458 50.9C278.018 51.14 278.568 51.26 279.108 51.26C279.508 51.26 279.878 51.21 280.218 51.11C280.558 51.01 280.828 50.85 281.028 50.63C281.248 50.39 281.358 50.07 281.358 49.67C281.358 49.23 281.208 48.88 280.908 48.62C280.628 48.36 280.258 48.15 279.798 47.99C279.358 47.83 278.888 47.68 278.388 47.54C277.368 47.2 276.588 46.73 276.048 46.13C275.508 45.53 275.238 44.8 275.238 43.94C275.238 43.28 275.398 42.67 275.718 42.11C276.058 41.53 276.548 41.06 277.188 40.7C277.848 40.34 278.658 40.16 279.618 40.16C280.478 40.16 281.248 40.27 281.928 40.49C282.608 40.69 283.248 41.03 283.848 41.51L282.738 43.25C282.378 42.87 281.948 42.59 281.448 42.41C280.948 42.23 280.498 42.13 280.098 42.11C279.758 42.09 279.428 42.14 279.108 42.26C278.808 42.38 278.558 42.55 278.358 42.77C278.158 42.99 278.058 43.25 278.058 43.55C278.058 43.97 278.198 44.31 278.478 44.57C278.758 44.83 279.118 45.04 279.558 45.2C280.018 45.34 280.468 45.49 280.908 45.65C281.528 45.83 282.078 46.07 282.558 46.37C283.038 46.67 283.418 47.04 283.698 47.48C283.998 47.92 284.148 48.47 284.148 49.13C284.148 49.87 283.968 50.56 283.608 51.2C283.268 51.82 282.738 52.32 282.018 52.7C281.318 53.06 280.418 53.24 279.318 53.24Z" fill="black"/>
<path d="M353.688 40.416C353.688 39.328 353.933 38.352 354.424 37.488C354.915 36.6133 355.581 35.9307 356.424 35.44C357.277 34.9493 358.221 34.704 359.256 34.704C360.472 34.704 361.533 34.9973 362.44 35.584C363.347 36.1707 364.008 37.0027 364.424 38.08H362.68C362.371 37.408 361.923 36.8907 361.336 36.528C360.76 36.1653 360.067 35.984 359.256 35.984C358.477 35.984 357.779 36.1653 357.16 36.528C356.541 36.8907 356.056 37.408 355.704 38.08C355.352 38.7413 355.176 39.52 355.176 40.416C355.176 41.3013 355.352 42.08 355.704 42.752C356.056 43.4133 356.541 43.9253 357.16 44.288C357.779 44.6507 358.477 44.832 359.256 44.832C360.067 44.832 360.76 44.656 361.336 44.304C361.923 43.9413 362.371 43.424 362.68 42.752H364.424C364.008 43.8187 363.347 44.6453 362.44 45.232C361.533 45.808 360.472 46.096 359.256 46.096C358.221 46.096 357.277 45.856 356.424 45.376C355.581 44.8853 354.915 44.208 354.424 43.344C353.933 42.48 353.688 41.504 353.688 40.416ZM373.183 43.52H368.319L367.423 46H365.887L369.919 34.912H371.599L375.615 46H374.079L373.183 43.52ZM372.767 42.336L370.751 36.704L368.735 42.336H372.767ZM384.237 34.848V36.032H381.197V46H379.741V36.032H376.685V34.848H384.237ZM387.485 36.032V39.76H391.549V40.96H387.485V44.8H392.029V46H386.029V34.832H392.029V36.032H387.485ZM402.68 38.08C402.371 37.4293 401.923 36.928 401.336 36.576C400.749 36.2133 400.067 36.032 399.288 36.032C398.509 36.032 397.805 36.2133 397.176 36.576C396.557 36.928 396.067 37.44 395.704 38.112C395.352 38.7733 395.176 39.5413 395.176 40.416C395.176 41.2907 395.352 42.0587 395.704 42.72C396.067 43.3813 396.557 43.8933 397.176 44.256C397.805 44.608 398.509 44.784 399.288 44.784C400.376 44.784 401.272 44.4587 401.976 43.808C402.68 43.1573 403.091 42.2773 403.208 41.168H398.76V39.984H404.76V41.104C404.675 42.0213 404.387 42.864 403.896 43.632C403.405 44.3893 402.76 44.992 401.96 45.44C401.16 45.8773 400.269 46.096 399.288 46.096C398.253 46.096 397.309 45.856 396.456 45.376C395.603 44.8853 394.925 44.208 394.424 43.344C393.933 42.48 393.688 41.504 393.688 40.416C393.688 39.328 393.933 38.352 394.424 37.488C394.925 36.6133 395.603 35.936 396.456 35.456C397.309 34.9653 398.253 34.72 399.288 34.72C400.472 34.72 401.517 35.0133 402.424 35.6C403.341 36.1867 404.008 37.0133 404.424 38.08H402.68ZM411.741 46.112C410.706 46.112 409.762 45.872 408.909 45.392C408.056 44.9013 407.378 44.224 406.877 43.36C406.386 42.4853 406.141 41.504 406.141 40.416C406.141 39.328 406.386 38.352 406.877 37.488C407.378 36.6133 408.056 35.936 408.909 35.456C409.762 34.9653 410.706 34.72 411.741 34.72C412.786 34.72 413.736 34.9653 414.589 35.456C415.442 35.936 416.114 36.608 416.605 37.472C417.096 38.336 417.341 39.3173 417.341 40.416C417.341 41.5147 417.096 42.496 416.605 43.36C416.114 44.224 415.442 44.9013 414.589 45.392C413.736 45.872 412.786 46.112 411.741 46.112ZM411.741 44.848C412.52 44.848 413.218 44.6667 413.837 44.304C414.466 43.9413 414.957 43.424 415.309 42.752C415.672 42.08 415.853 41.3013 415.853 40.416C415.853 39.52 415.672 38.7413 415.309 38.08C414.957 37.408 414.472 36.8907 413.853 36.528C413.234 36.1653 412.53 35.984 411.741 35.984C410.952 35.984 410.248 36.1653 409.629 36.528C409.01 36.8907 408.52 37.408 408.157 38.08C407.805 38.7413 407.629 39.52 407.629 40.416C407.629 41.3013 407.805 42.08 408.157 42.752C408.52 43.424 409.01 43.9413 409.629 44.304C410.258 44.6667 410.962 44.848 411.741 44.848ZM425.135 46L422.479 41.44H420.719V46H419.263V34.848H422.863C423.706 34.848 424.415 34.992 424.991 35.28C425.578 35.568 426.015 35.9573 426.303 36.448C426.591 36.9387 426.735 37.4987 426.735 38.128C426.735 38.896 426.511 39.5733 426.063 40.16C425.626 40.7467 424.965 41.136 424.079 41.328L426.879 46H425.135ZM420.719 40.272H422.863C423.653 40.272 424.245 40.08 424.639 39.696C425.034 39.3013 425.231 38.7787 425.231 38.128C425.231 37.4667 425.034 36.9547 424.639 36.592C424.255 36.2293 423.663 36.048 422.863 36.048H420.719V40.272ZM430.454 34.848V46H428.998V34.848H430.454ZM439.527 43.52H434.663L433.767 46H432.231L436.263 34.912H437.943L441.959 46H440.423L439.527 43.52ZM439.111 42.336L437.095 36.704L435.079 42.336H439.111ZM447.252 46.112C446.516 46.112 445.855 45.984 445.268 45.728C444.692 45.4613 444.239 45.0987 443.908 44.64C443.578 44.1707 443.407 43.632 443.396 43.024H444.948C445.002 43.5467 445.215 43.9893 445.588 44.352C445.972 44.704 446.527 44.88 447.252 44.88C447.946 44.88 448.49 44.7093 448.884 44.368C449.29 44.016 449.492 43.568 449.492 43.024C449.492 42.5973 449.375 42.2507 449.14 41.984C448.906 41.7173 448.612 41.5147 448.26 41.376C447.908 41.2373 447.434 41.088 446.836 40.928C446.1 40.736 445.508 40.544 445.06 40.352C444.623 40.16 444.244 39.8613 443.924 39.456C443.615 39.04 443.46 38.4853 443.46 37.792C443.46 37.184 443.615 36.6453 443.924 36.176C444.234 35.7067 444.666 35.344 445.22 35.088C445.786 34.832 446.431 34.704 447.156 34.704C448.202 34.704 449.055 34.9653 449.716 35.488C450.388 36.0107 450.767 36.704 450.852 37.568H449.252C449.199 37.1413 448.975 36.768 448.58 36.448C448.186 36.1173 447.663 35.952 447.012 35.952C446.404 35.952 445.908 36.112 445.524 36.432C445.14 36.7413 444.948 37.1787 444.948 37.744C444.948 38.1493 445.06 38.48 445.284 38.736C445.519 38.992 445.802 39.1893 446.132 39.328C446.474 39.456 446.948 39.6053 447.556 39.776C448.292 39.9787 448.884 40.1813 449.332 40.384C449.78 40.576 450.164 40.88 450.484 41.296C450.804 41.7013 450.964 42.256 450.964 42.96C450.964 43.504 450.82 44.016 450.532 44.496C450.244 44.976 449.818 45.3653 449.252 45.664C448.687 45.9627 448.02 46.112 447.252 46.112Z" fill="black"/>
<path d="M501.536 34.848V36.032H496.688V39.792H500.624V40.976H496.688V46H495.232V34.848H501.536ZM509.887 43.52H505.023L504.127 46H502.59L506.623 34.912H508.303L512.319 46H510.783L509.887 43.52ZM509.471 42.336L507.455 36.704L505.439 42.336H509.471ZM523.292 34.848L519.084 46H517.404L513.196 34.848H514.748L518.252 44.464L521.756 34.848H523.292ZM529.944 46.112C528.91 46.112 527.966 45.872 527.112 45.392C526.259 44.9013 525.582 44.224 525.08 43.36C524.59 42.4853 524.344 41.504 524.344 40.416C524.344 39.328 524.59 38.352 525.08 37.488C525.582 36.6133 526.259 35.936 527.112 35.456C527.966 34.9653 528.91 34.72 529.944 34.72C530.99 34.72 531.939 34.9653 532.792 35.456C533.646 35.936 534.318 36.608 534.808 37.472C535.299 38.336 535.544 39.3173 535.544 40.416C535.544 41.5147 535.299 42.496 534.808 43.36C534.318 44.224 533.646 44.9013 532.792 45.392C531.939 45.872 530.99 46.112 529.944 46.112ZM529.944 44.848C530.723 44.848 531.422 44.6667 532.04 44.304C532.67 43.9413 533.16 43.424 533.512 42.752C533.875 42.08 534.056 41.3013 534.056 40.416C534.056 39.52 533.875 38.7413 533.512 38.08C533.16 37.408 532.675 36.8907 532.056 36.528C531.438 36.1653 530.734 35.984 529.944 35.984C529.155 35.984 528.451 36.1653 527.832 36.528C527.214 36.8907 526.723 37.408 526.36 38.08C526.008 38.7413 525.832 39.52 525.832 40.416C525.832 41.3013 526.008 42.08 526.36 42.752C526.723 43.424 527.214 43.9413 527.832 44.304C528.462 44.6667 529.166 44.848 529.944 44.848ZM543.338 46L540.682 41.44H538.922V46H537.466V34.848H541.066C541.909 34.848 542.618 34.992 543.194 35.28C543.781 35.568 544.218 35.9573 544.506 36.448C544.794 36.9387 544.938 37.4987 544.938 38.128C544.938 38.896 544.714 39.5733 544.266 40.16C543.829 40.7467 543.168 41.136 542.282 41.328L545.082 46H543.338ZM538.922 40.272H541.066C541.856 40.272 542.448 40.08 542.842 39.696C543.237 39.3013 543.434 38.7787 543.434 38.128C543.434 37.4667 543.237 36.9547 542.842 36.592C542.458 36.2293 541.866 36.048 541.066 36.048H538.922V40.272ZM548.657 34.848V46H547.201V34.848H548.657ZM558.002 34.848V36.032H554.962V46H553.506V36.032H550.45V34.848H558.002ZM564.851 46.112C563.816 46.112 562.872 45.872 562.019 45.392C561.165 44.9013 560.488 44.224 559.987 43.36C559.496 42.4853 559.251 41.504 559.251 40.416C559.251 39.328 559.496 38.352 559.987 37.488C560.488 36.6133 561.165 35.936 562.019 35.456C562.872 34.9653 563.816 34.72 564.851 34.72C565.896 34.72 566.845 34.9653 567.699 35.456C568.552 35.936 569.224 36.608 569.715 37.472C570.205 38.336 570.451 39.3173 570.451 40.416C570.451 41.5147 570.205 42.496 569.715 43.36C569.224 44.224 568.552 44.9013 567.699 45.392C566.845 45.872 565.896 46.112 564.851 46.112ZM564.851 44.848C565.629 44.848 566.328 44.6667 566.947 44.304C567.576 43.9413 568.067 43.424 568.419 42.752C568.781 42.08 568.963 41.3013 568.963 40.416C568.963 39.52 568.781 38.7413 568.419 38.08C568.067 37.408 567.581 36.8907 566.963 36.528C566.344 36.1653 565.64 35.984 564.851 35.984C564.061 35.984 563.357 36.1653 562.739 36.528C562.12 36.8907 561.629 37.408 561.267 38.08C560.915 38.7413 560.739 39.52 560.739 40.416C560.739 41.3013 560.915 42.08 561.267 42.752C561.629 43.424 562.12 43.9413 562.739 44.304C563.368 44.6667 564.072 44.848 564.851 44.848ZM575.909 46.112C575.173 46.112 574.511 45.984 573.925 45.728C573.349 45.4613 572.895 45.0987 572.565 44.64C572.234 44.1707 572.063 43.632 572.053 43.024H573.605C573.658 43.5467 573.871 43.9893 574.245 44.352C574.629 44.704 575.183 44.88 575.909 44.88C576.602 44.88 577.146 44.7093 577.541 44.368C577.946 44.016 578.149 43.568 578.149 43.024C578.149 42.5973 578.031 42.2507 577.797 41.984C577.562 41.7173 577.269 41.5147 576.917 41.376C576.565 41.2373 576.09 41.088 575.493 40.928C574.757 40.736 574.165 40.544 573.717 40.352C573.279 40.16 572.901 39.8613 572.581 39.456C572.271 39.04 572.117 38.4853 572.117 37.792C572.117 37.184 572.271 36.6453 572.581 36.176C572.89 35.7067 573.322 35.344 573.877 35.088C574.442 34.832 575.087 34.704 575.813 34.704C576.858 34.704 577.711 34.9653 578.373 35.488C579.045 36.0107 579.423 36.704 579.509 37.568H577.909C577.855 37.1413 577.631 36.768 577.237 36.448C576.842 36.1173 576.319 35.952 575.669 35.952C575.061 35.952 574.565 36.112 574.181 36.432C573.797 36.7413 573.605 37.1787 573.605 37.744C573.605 38.1493 573.717 38.48 573.941 38.736C574.175 38.992 574.458 39.1893 574.789 39.328C575.13 39.456 575.605 39.6053 576.213 39.776C576.949 39.9787 577.541 40.1813 577.989 40.384C578.437 40.576 578.821 40.88 579.141 41.296C579.461 41.7013 579.621 42.256 579.621 42.96C579.621 43.504 579.477 44.016 579.189 44.496C578.901 44.976 578.474 45.3653 577.909 45.664C577.343 45.9627 576.677 46.112 575.909 46.112Z" fill="black"/>
<path d="M635.544 34.928V46H634.088V37.744L630.408 46H629.384L625.688 37.728V46H624.232V34.928H625.8L629.896 44.08L633.992 34.928H635.544ZM639.469 34.848V46H638.013V34.848H639.469ZM650.719 46H649.263L643.407 37.12V46H641.951V34.832H643.407L649.263 43.696V34.832H650.719V46ZM661.793 34.848V46H660.337V40.944H654.657V46H653.201V34.848H654.657V39.744H660.337V34.848H661.793ZM670.871 43.52H666.007L665.111 46H663.575L667.607 34.912H669.287L673.303 46H671.767L670.871 43.52ZM670.455 42.336L668.439 36.704L666.423 42.336H670.455ZM680.782 36.032V39.76H684.846V40.96H680.782V44.8H685.326V46H679.326V34.832H685.326V36.032H680.782ZM691.065 46.112C690.329 46.112 689.668 45.984 689.081 45.728C688.505 45.4613 688.052 45.0987 687.721 44.64C687.39 44.1707 687.22 43.632 687.209 43.024H688.761C688.814 43.5467 689.028 43.9893 689.401 44.352C689.785 44.704 690.34 44.88 691.065 44.88C691.758 44.88 692.302 44.7093 692.697 44.368C693.102 44.016 693.305 43.568 693.305 43.024C693.305 42.5973 693.188 42.2507 692.953 41.984C692.718 41.7173 692.425 41.5147 692.073 41.376C691.721 41.2373 691.246 41.088 690.649 40.928C689.913 40.736 689.321 40.544 688.873 40.352C688.436 40.16 688.057 39.8613 687.737 39.456C687.428 39.04 687.273 38.4853 687.273 37.792C687.273 37.184 687.428 36.6453 687.737 36.176C688.046 35.7067 688.478 35.344 689.033 35.088C689.598 34.832 690.244 34.704 690.969 34.704C692.014 34.704 692.868 34.9653 693.529 35.488C694.201 36.0107 694.58 36.704 694.665 37.568H693.065C693.012 37.1413 692.788 36.768 692.393 36.448C691.998 36.1173 691.476 35.952 690.825 35.952C690.217 35.952 689.721 36.112 689.337 36.432C688.953 36.7413 688.761 37.1787 688.761 37.744C688.761 38.1493 688.873 38.48 689.097 38.736C689.332 38.992 689.614 39.1893 689.945 39.328C690.286 39.456 690.761 39.6053 691.369 39.776C692.105 39.9787 692.697 40.1813 693.145 40.384C693.593 40.576 693.977 40.88 694.297 41.296C694.617 41.7013 694.777 42.256 694.777 42.96C694.777 43.504 694.633 44.016 694.345 44.496C694.057 44.976 693.63 45.3653 693.065 45.664C692.5 45.9627 691.833 46.112 691.065 46.112ZM703.784 34.848V36.032H700.744V46H699.288V36.032H696.232V34.848H703.784ZM712.168 43.52H707.304L706.408 46H704.872L708.904 34.912H710.584L714.6 46H713.064L712.168 43.52ZM711.752 42.336L709.736 36.704L707.72 42.336H711.752ZM725.125 46H723.669L717.813 37.12V46H716.357V34.832H717.813L723.669 43.696V34.832H725.125V46ZM734.471 34.848V36.032H731.431V46H729.975V36.032H726.919V34.848H734.471ZM737.719 36.032V39.76H741.783V40.96H737.719V44.8H742.263V46H736.263V34.832H742.263V36.032H737.719Z" fill="black"/>
<g clip-path="url(#clip0_113_1674)">
<path d="M1300.5 30.5H1297.33C1297.33 27.0008 1294.5 24.1666 1291 24.1666C1287.5 24.1666 1284.67 27.0008 1284.67 30.5H1281.5C1279.76 30.5 1278.33 31.925 1278.33 33.6666V52.6666C1278.33 54.4083 1279.76 55.8333 1281.5 55.8333H1300.5C1302.24 55.8333 1303.67 54.4083 1303.67 52.6666V33.6666C1303.67 31.925 1302.24 30.5 1300.5 30.5ZM1291 27.3333C1292.74 27.3333 1294.17 28.7583 1294.17 30.5H1287.83C1287.83 28.7583 1289.26 27.3333 1291 27.3333ZM1300.5 52.6666H1281.5V33.6666H1284.67V36.8333C1284.67 37.7041 1285.38 38.4166 1286.25 38.4166C1287.12 38.4166 1287.83 37.7041 1287.83 36.8333V33.6666H1294.17V36.8333C1294.17 37.7041 1294.88 38.4166 1295.75 38.4166C1296.62 38.4166 1297.33 37.7041 1297.33 36.8333V33.6666H1300.5V52.6666Z" fill="#002F52"/>
</g>
<path d="M1329.68 33.16V47H1327.86V36.68L1323.26 47H1321.98L1317.36 36.66V47H1315.54V33.16H1317.5L1322.62 44.6L1327.74 33.16H1329.68ZM1333.71 34.26C1333.36 34.26 1333.07 34.14 1332.83 33.9C1332.59 33.66 1332.47 33.3667 1332.47 33.02C1332.47 32.6733 1332.59 32.38 1332.83 32.14C1333.07 31.9 1333.36 31.78 1333.71 31.78C1334.04 31.78 1334.32 31.9 1334.55 32.14C1334.79 32.38 1334.91 32.6733 1334.91 33.02C1334.91 33.3667 1334.79 33.66 1334.55 33.9C1334.32 34.14 1334.04 34.26 1333.71 34.26ZM1334.59 36.04V47H1332.77V36.04H1334.59ZM1343.03 35.84C1344.36 35.84 1345.44 36.2467 1346.27 37.06C1347.1 37.86 1347.51 39.02 1347.51 40.54V47H1345.71V40.8C1345.71 39.7067 1345.44 38.8733 1344.89 38.3C1344.34 37.7133 1343.6 37.42 1342.65 37.42C1341.69 37.42 1340.92 37.72 1340.35 38.32C1339.79 38.92 1339.51 39.7933 1339.51 40.94V47H1337.69V36.04H1339.51V37.6C1339.87 37.04 1340.36 36.6067 1340.97 36.3C1341.6 35.9933 1342.28 35.84 1343.03 35.84ZM1355.92 35.84C1356.75 35.84 1357.49 36.02 1358.16 36.38C1358.83 36.7267 1359.35 37.2533 1359.72 37.96C1360.11 38.6667 1360.3 39.5267 1360.3 40.54V47H1358.5V40.8C1358.5 39.7067 1358.23 38.8733 1357.68 38.3C1357.13 37.7133 1356.39 37.42 1355.44 37.42C1354.48 37.42 1353.71 37.72 1353.14 38.32C1352.58 38.92 1352.3 39.7933 1352.3 40.94V47H1350.48V32.2H1352.3V37.6C1352.66 37.04 1353.15 36.6067 1353.78 36.3C1354.42 35.9933 1355.13 35.84 1355.92 35.84ZM1362.59 41.48C1362.59 40.36 1362.82 39.38 1363.27 38.54C1363.73 37.6867 1364.35 37.0267 1365.13 36.56C1365.93 36.0933 1366.82 35.86 1367.79 35.86C1368.75 35.86 1369.59 36.0667 1370.29 36.48C1371 36.8933 1371.53 37.4133 1371.87 38.04V36.04H1373.71V47H1371.87V44.96C1371.51 45.6 1370.97 46.1333 1370.25 46.56C1369.55 46.9733 1368.72 47.18 1367.77 47.18C1366.8 47.18 1365.92 46.94 1365.13 46.46C1364.35 45.98 1363.73 45.3067 1363.27 44.44C1362.82 43.5733 1362.59 42.5867 1362.59 41.48ZM1371.87 41.5C1371.87 40.6733 1371.71 39.9533 1371.37 39.34C1371.04 38.7267 1370.59 38.26 1370.01 37.94C1369.45 37.6067 1368.83 37.44 1368.15 37.44C1367.47 37.44 1366.85 37.6 1366.29 37.92C1365.73 38.24 1365.29 38.7067 1364.95 39.32C1364.62 39.9333 1364.45 40.6533 1364.45 41.48C1364.45 42.32 1364.62 43.0533 1364.95 43.68C1365.29 44.2933 1365.73 44.7667 1366.29 45.1C1366.85 45.42 1367.47 45.58 1368.15 45.58C1368.83 45.58 1369.45 45.42 1370.01 45.1C1370.59 44.7667 1371.04 44.2933 1371.37 43.68C1371.71 43.0533 1371.87 42.3267 1371.87 41.5ZM1386 47.18C1385.16 47.18 1384.41 47.04 1383.74 46.76C1383.08 46.4667 1382.55 46.0667 1382.16 45.56C1381.78 45.04 1381.56 44.4467 1381.52 43.78H1383.4C1383.46 44.3267 1383.71 44.7733 1384.16 45.12C1384.63 45.4667 1385.24 45.64 1385.98 45.64C1386.68 45.64 1387.22 45.4867 1387.62 45.18C1388.02 44.8733 1388.22 44.4867 1388.22 44.02C1388.22 43.54 1388.01 43.1867 1387.58 42.96C1387.16 42.72 1386.5 42.4867 1385.6 42.26C1384.79 42.0467 1384.12 41.8333 1383.6 41.62C1383.1 41.3933 1382.66 41.0667 1382.28 40.64C1381.92 40.2 1381.74 39.6267 1381.74 38.92C1381.74 38.36 1381.91 37.8467 1382.24 37.38C1382.58 36.9133 1383.05 36.5467 1383.66 36.28C1384.28 36 1384.98 35.86 1385.76 35.86C1386.98 35.86 1387.96 36.1667 1388.7 36.78C1389.45 37.3933 1389.85 38.2333 1389.9 39.3H1388.08C1388.04 38.7267 1387.81 38.2667 1387.38 37.92C1386.97 37.5733 1386.41 37.4 1385.7 37.4C1385.05 37.4 1384.53 37.54 1384.14 37.82C1383.76 38.1 1383.56 38.4667 1383.56 38.92C1383.56 39.28 1383.68 39.58 1383.9 39.82C1384.14 40.0467 1384.44 40.2333 1384.78 40.38C1385.14 40.5133 1385.64 40.6667 1386.26 40.84C1387.05 41.0533 1387.69 41.2667 1388.18 41.48C1388.68 41.68 1389.1 41.9867 1389.44 42.4C1389.8 42.8133 1389.99 43.3533 1390 44.02C1390 44.62 1389.84 45.16 1389.5 45.64C1389.17 46.12 1388.7 46.5 1388.08 46.78C1387.48 47.0467 1386.79 47.18 1386 47.18ZM1391.89 41.48C1391.89 40.36 1392.12 39.38 1392.57 38.54C1393.02 37.6867 1393.64 37.0267 1394.43 36.56C1395.23 36.0933 1396.12 35.86 1397.09 35.86C1398.05 35.86 1398.88 36.0667 1399.59 36.48C1400.3 36.8933 1400.82 37.4133 1401.17 38.04V36.04H1403.01V47H1401.17V44.96C1400.81 45.6 1400.27 46.1333 1399.55 46.56C1398.84 46.9733 1398.02 47.18 1397.07 47.18C1396.1 47.18 1395.22 46.94 1394.43 46.46C1393.64 45.98 1393.02 45.3067 1392.57 44.44C1392.12 43.5733 1391.89 42.5867 1391.89 41.48ZM1401.17 41.5C1401.17 40.6733 1401 39.9533 1400.67 39.34C1400.34 38.7267 1399.88 38.26 1399.31 37.94C1398.75 37.6067 1398.13 37.44 1397.45 37.44C1396.77 37.44 1396.15 37.6 1395.59 37.92C1395.03 38.24 1394.58 38.7067 1394.25 39.32C1393.92 39.9333 1393.75 40.6533 1393.75 41.48C1393.75 42.32 1393.92 43.0533 1394.25 43.68C1394.58 44.2933 1395.03 44.7667 1395.59 45.1C1396.15 45.42 1396.77 45.58 1397.45 45.58C1398.13 45.58 1398.75 45.42 1399.31 45.1C1399.88 44.7667 1400.34 44.2933 1400.67 43.68C1401 43.0533 1401.17 42.3267 1401.17 41.5ZM1405.41 41.5C1405.41 40.3667 1405.63 39.38 1406.09 38.54C1406.54 37.6867 1407.17 37.0267 1407.97 36.56C1408.78 36.0933 1409.71 35.86 1410.75 35.86C1412.09 35.86 1413.2 36.1867 1414.07 36.84C1414.95 37.4933 1415.53 38.4 1415.81 39.56H1413.85C1413.66 38.8933 1413.29 38.3667 1412.75 37.98C1412.21 37.5933 1411.55 37.4 1410.75 37.4C1409.71 37.4 1408.87 37.76 1408.23 38.48C1407.59 39.1867 1407.27 40.1933 1407.27 41.5C1407.27 42.82 1407.59 43.84 1408.23 44.56C1408.87 45.28 1409.71 45.64 1410.75 45.64C1411.55 45.64 1412.21 45.4533 1412.75 45.08C1413.28 44.7067 1413.65 44.1733 1413.85 43.48H1415.81C1415.51 44.6 1414.93 45.5 1414.05 46.18C1413.17 46.8467 1412.07 47.18 1410.75 47.18C1409.71 47.18 1408.78 46.9467 1407.97 46.48C1407.17 46.0133 1406.54 45.3533 1406.09 44.5C1405.63 43.6467 1405.41 42.6467 1405.41 41.5ZM1423.02 47.18C1421.99 47.18 1421.06 46.9467 1420.22 46.48C1419.39 46.0133 1418.74 45.3533 1418.26 44.5C1417.79 43.6333 1417.56 42.6333 1417.56 41.5C1417.56 40.38 1417.8 39.3933 1418.28 38.54C1418.77 37.6733 1419.44 37.0133 1420.28 36.56C1421.12 36.0933 1422.06 35.86 1423.1 35.86C1424.14 35.86 1425.08 36.0933 1425.92 36.56C1426.76 37.0133 1427.42 37.6667 1427.9 38.52C1428.39 39.3733 1428.64 40.3667 1428.64 41.5C1428.64 42.6333 1428.38 43.6333 1427.88 44.5C1427.38 45.3533 1426.71 46.0133 1425.86 46.48C1425 46.9467 1424.06 47.18 1423.02 47.18ZM1423.02 45.58C1423.67 45.58 1424.28 45.4267 1424.86 45.12C1425.43 44.8133 1425.89 44.3533 1426.24 43.74C1426.6 43.1267 1426.78 42.38 1426.78 41.5C1426.78 40.62 1426.6 39.8733 1426.26 39.26C1425.91 38.6467 1425.46 38.1933 1424.9 37.9C1424.34 37.5933 1423.73 37.44 1423.08 37.44C1422.41 37.44 1421.8 37.5933 1421.24 37.9C1420.69 38.1933 1420.25 38.6467 1419.92 39.26C1419.58 39.8733 1419.42 40.62 1419.42 41.5C1419.42 42.3933 1419.58 43.1467 1419.9 43.76C1420.23 44.3733 1420.67 44.8333 1421.22 45.14C1421.76 45.4333 1422.36 45.58 1423.02 45.58ZM1432.85 32.2V47H1431.03V32.2H1432.85ZM1435.27 41.48C1435.27 40.36 1435.5 39.38 1435.95 38.54C1436.4 37.6867 1437.02 37.0267 1437.81 36.56C1438.61 36.0933 1439.5 35.86 1440.47 35.86C1441.43 35.86 1442.26 36.0667 1442.97 36.48C1443.68 36.8933 1444.2 37.4133 1444.55 38.04V36.04H1446.39V47H1444.55V44.96C1444.19 45.6 1443.65 46.1333 1442.93 46.56C1442.22 46.9733 1441.4 47.18 1440.45 47.18C1439.48 47.18 1438.6 46.94 1437.81 46.46C1437.02 45.98 1436.4 45.3067 1435.95 44.44C1435.5 43.5733 1435.27 42.5867 1435.27 41.48ZM1444.55 41.5C1444.55 40.6733 1444.38 39.9533 1444.05 39.34C1443.72 38.7267 1443.26 38.26 1442.69 37.94C1442.13 37.6067 1441.51 37.44 1440.83 37.44C1440.15 37.44 1439.53 37.6 1438.97 37.92C1438.41 38.24 1437.96 38.7067 1437.63 39.32C1437.3 39.9333 1437.13 40.6533 1437.13 41.48C1437.13 42.32 1437.3 43.0533 1437.63 43.68C1437.96 44.2933 1438.41 44.7667 1438.97 45.1C1439.53 45.42 1440.15 45.58 1440.83 45.58C1441.51 45.58 1442.13 45.42 1442.69 45.1C1443.26 44.7667 1443.72 44.2933 1444.05 43.68C1444.38 43.0533 1444.55 42.3267 1444.55 41.5Z" fill="black"/>
<path d="M1564.68 33.16V47H1562.86V36.68L1558.26 47H1556.98L1552.36 36.66V47H1550.54V33.16H1552.5L1557.62 44.6L1562.74 33.16H1564.68ZM1577.77 41.1C1577.77 41.4467 1577.75 41.8133 1577.71 42.2H1568.95C1569.01 43.28 1569.38 44.1267 1570.05 44.74C1570.73 45.34 1571.55 45.64 1572.51 45.64C1573.29 45.64 1573.95 45.46 1574.47 45.1C1575 44.7267 1575.37 44.2333 1575.59 43.62H1577.55C1577.25 44.6733 1576.67 45.5333 1575.79 46.2C1574.91 46.8533 1573.81 47.18 1572.51 47.18C1571.47 47.18 1570.53 46.9467 1569.71 46.48C1568.89 46.0133 1568.25 45.3533 1567.79 44.5C1567.32 43.6333 1567.09 42.6333 1567.09 41.5C1567.09 40.3667 1567.31 39.3733 1567.77 38.52C1568.22 37.6667 1568.85 37.0133 1569.67 36.56C1570.49 36.0933 1571.44 35.86 1572.51 35.86C1573.55 35.86 1574.47 36.0867 1575.27 36.54C1576.07 36.9933 1576.68 37.62 1577.11 38.42C1577.55 39.2067 1577.77 40.1 1577.77 41.1ZM1575.89 40.72C1575.89 40.0267 1575.73 39.4333 1575.43 38.94C1575.12 38.4333 1574.7 38.0533 1574.17 37.8C1573.65 37.5333 1573.07 37.4 1572.43 37.4C1571.51 37.4 1570.72 37.6933 1570.07 38.28C1569.43 38.8667 1569.06 39.68 1568.97 40.72H1575.89ZM1589.89 36.04V47H1588.07V45.38C1587.72 45.94 1587.24 46.38 1586.61 46.7C1586 47.0067 1585.32 47.16 1584.57 47.16C1583.72 47.16 1582.95 46.9867 1582.27 46.64C1581.59 46.28 1581.05 45.7467 1580.65 45.04C1580.26 44.3333 1580.07 43.4733 1580.07 42.46V36.04H1581.87V42.22C1581.87 43.3 1582.14 44.1333 1582.69 44.72C1583.24 45.2933 1583.98 45.58 1584.93 45.58C1585.9 45.58 1586.67 45.28 1587.23 44.68C1587.79 44.08 1588.07 43.2067 1588.07 42.06V36.04H1589.89ZM1600.11 38.06C1600.47 37.4333 1601.01 36.9133 1601.71 36.5C1602.43 36.0733 1603.27 35.86 1604.21 35.86C1605.19 35.86 1606.07 36.0933 1606.85 36.56C1607.65 37.0267 1608.28 37.6867 1608.73 38.54C1609.19 39.38 1609.41 40.36 1609.41 41.48C1609.41 42.5867 1609.19 43.5733 1608.73 44.44C1608.28 45.3067 1607.65 45.98 1606.85 46.46C1606.07 46.94 1605.19 47.18 1604.21 47.18C1603.28 47.18 1602.45 46.9733 1601.73 46.56C1601.03 46.1333 1600.49 45.6067 1600.11 44.98V52.2H1598.29V36.04H1600.11V38.06ZM1607.55 41.48C1607.55 40.6533 1607.39 39.9333 1607.05 39.32C1606.72 38.7067 1606.27 38.24 1605.69 37.92C1605.13 37.6 1604.51 37.44 1603.83 37.44C1603.17 37.44 1602.55 37.6067 1601.97 37.94C1601.41 38.26 1600.96 38.7333 1600.61 39.36C1600.28 39.9733 1600.11 40.6867 1600.11 41.5C1600.11 42.3267 1600.28 43.0533 1600.61 43.68C1600.96 44.2933 1601.41 44.7667 1601.97 45.1C1602.55 45.42 1603.17 45.58 1603.83 45.58C1604.51 45.58 1605.13 45.42 1605.69 45.1C1606.27 44.7667 1606.72 44.2933 1607.05 43.68C1607.39 43.0533 1607.55 42.32 1607.55 41.48ZM1621.81 41.1C1621.81 41.4467 1621.79 41.8133 1621.75 42.2H1612.99C1613.06 43.28 1613.42 44.1267 1614.09 44.74C1614.77 45.34 1615.59 45.64 1616.55 45.64C1617.34 45.64 1617.99 45.46 1618.51 45.1C1619.04 44.7267 1619.42 44.2333 1619.63 43.62H1621.59C1621.3 44.6733 1620.71 45.5333 1619.83 46.2C1618.95 46.8533 1617.86 47.18 1616.55 47.18C1615.51 47.18 1614.58 46.9467 1613.75 46.48C1612.94 46.0133 1612.3 45.3533 1611.83 44.5C1611.36 43.6333 1611.13 42.6333 1611.13 41.5C1611.13 40.3667 1611.36 39.3733 1611.81 38.52C1612.26 37.6667 1612.9 37.0133 1613.71 36.56C1614.54 36.0933 1615.48 35.86 1616.55 35.86C1617.59 35.86 1618.51 36.0867 1619.31 36.54C1620.11 36.9933 1620.72 37.62 1621.15 38.42C1621.59 39.2067 1621.81 40.1 1621.81 41.1ZM1619.93 40.72C1619.93 40.0267 1619.78 39.4333 1619.47 38.94C1619.16 38.4333 1618.74 38.0533 1618.21 37.8C1617.69 37.5333 1617.11 37.4 1616.47 37.4C1615.55 37.4 1614.76 37.6933 1614.11 38.28C1613.47 38.8667 1613.1 39.68 1613.01 40.72H1619.93ZM1626.03 37.82C1626.35 37.1933 1626.81 36.7067 1627.39 36.36C1627.99 36.0133 1628.72 35.84 1629.57 35.84V37.72H1629.09C1627.05 37.72 1626.03 38.8267 1626.03 41.04V47H1624.21V36.04H1626.03V37.82ZM1636.13 37.54H1633.83V47H1632.01V37.54H1630.59V36.04H1632.01V35.26C1632.01 34.0333 1632.33 33.14 1632.95 32.58C1633.59 32.0067 1634.61 31.72 1636.01 31.72V33.24C1635.21 33.24 1634.65 33.4 1634.31 33.72C1633.99 34.0267 1633.83 34.54 1633.83 35.26V36.04H1636.13V37.54ZM1639.19 34.26C1638.85 34.26 1638.55 34.14 1638.31 33.9C1638.07 33.66 1637.95 33.3667 1637.95 33.02C1637.95 32.6733 1638.07 32.38 1638.31 32.14C1638.55 31.9 1638.85 31.78 1639.19 31.78C1639.53 31.78 1639.81 31.9 1640.03 32.14C1640.27 32.38 1640.39 32.6733 1640.39 33.02C1640.39 33.3667 1640.27 33.66 1640.03 33.9C1639.81 34.14 1639.53 34.26 1639.19 34.26ZM1640.07 36.04V47H1638.25V36.04H1640.07ZM1645 32.2V47H1643.18V32.2H1645Z" fill="black"/>
<path d="M1525 24C1516.17 24 1509 31.168 1509 40C1509 48.832 1516.17 56 1525 56C1533.83 56 1541 48.832 1541 40C1541 31.168 1533.83 24 1525 24ZM1517.11 50.048C1517.8 48.608 1521.99 47.2 1525 47.2C1528.01 47.2 1532.22 48.608 1532.89 50.048C1530.71 51.776 1527.98 52.8 1525 52.8C1522.02 52.8 1519.29 51.776 1517.11 50.048ZM1535.18 47.728C1532.89 44.944 1527.34 44 1525 44C1522.66 44 1517.11 44.944 1514.82 47.728C1513.19 45.584 1512.2 42.912 1512.2 40C1512.2 32.944 1517.94 27.2 1525 27.2C1532.06 27.2 1537.8 32.944 1537.8 40C1537.8 42.912 1536.81 45.584 1535.18 47.728ZM1525 30.4C1521.9 30.4 1519.4 32.896 1519.4 36C1519.4 39.104 1521.9 41.6 1525 41.6C1528.1 41.6 1530.6 39.104 1530.6 36C1530.6 32.896 1528.1 30.4 1525 30.4ZM1525 38.4C1523.67 38.4 1522.6 37.328 1522.6 36C1522.6 34.672 1523.67 33.6 1525 33.6C1526.33 33.6 1527.4 34.672 1527.4 36C1527.4 37.328 1526.33 38.4 1525 38.4Z" fill="#002F52"/>
<defs>
<linearGradient id="paint0_linear_113_1674" x1="99" y1="20" x2="99" y2="60" gradientUnits="userSpaceOnUse">
<stop offset="0.677083" stop-color="#FD8325"/>
<stop offset="1" stop-color="#FC6621"/>
</linearGradient>
<clipPath id="clip0_113_1674">
<rect width="38" height="38" fill="white" transform="translate(1272 21)"/>
</clipPath>
</defs>
</svg>
